<svg width="48" height="60" viewBox="0 0 48 60" fill="none" xmlns="http://www.w3.org/2000/svg">
<rect y="6" width="48" height="48" rx="3" fill="#F5F8F7"/>
<path d="M25.177 42.625C26.2936 42.625 27.202 42.4833 27.902 42.2C28.6186 41.9167 29.177 41.55 29.577 41.1C29.977 40.65 30.252 40.1417 30.402 39.575C30.552 39.0083 30.627 38.4333 30.627 37.85C30.627 37.1833 30.5353 36.5833 30.352 36.05C30.1853 35.5167 29.8853 35.0667 29.452 34.7C29.0353 34.3333 28.477 34.05 27.777 33.85C27.077 33.65 26.1936 33.55 25.127 33.55H19.227V42.625H25.177ZM19.227 18.9V27.9H23.627C24.5603 27.9 25.402 27.8333 26.152 27.7C26.902 27.5667 27.5353 27.3333 28.052 27C28.5853 26.6667 28.9853 26.2083 29.252 25.625C29.5353 25.0417 29.677 24.3083 29.677 23.425C29.677 22.5583 29.5686 21.8417 29.352 21.275C29.1353 20.6917 28.802 20.225 28.352 19.875C27.902 19.525 27.327 19.275 26.627 19.125C25.9436 18.975 25.127 18.9 24.177 18.9H19.227ZM24.177 12.575C26.6936 12.575 28.8353 12.8083 30.602 13.275C32.3686 13.7417 33.8103 14.4 34.927 15.25C36.0436 16.1 36.852 17.1333 37.352 18.35C37.8686 19.5667 38.127 20.925 38.127 22.425C38.127 23.2417 38.0103 24.0333 37.777 24.8C37.5436 25.55 37.177 26.2583 36.677 26.925C36.177 27.575 35.5353 28.175 34.752 28.725C33.9686 29.275 33.027 29.75 31.927 30.15C34.327 30.7333 36.102 31.675 37.252 32.975C38.402 34.275 38.977 35.9583 38.977 38.025C38.977 39.575 38.677 41.0167 38.077 42.35C37.477 43.6833 36.5936 44.85 35.427 45.85C34.277 46.8333 32.852 47.6083 31.152 48.175C29.452 48.725 27.5103 49 25.327 49H10.777V12.575H24.177Z" fill="#2B2D42"/>
</svg>
